<svg width="285" height="108" viewBox="0 0 285 108" fill="none" xmlns="http://www.w3.org/2000/svg">
<path d="M2.52 53.8C2.52 48.856 3.624 44.44 5.832 40.552C8.088 36.616 11.136 33.568 14.976 31.408C18.864 29.2 23.208 28.096 28.008 28.096C33.624 28.096 38.544 29.536 42.768 32.416C46.992 35.296 49.944 39.28 51.624 44.368H40.032C38.88 41.968 37.248 40.168 35.136 38.968C33.072 37.768 30.672 37.168 27.936 37.168C25.008 37.168 22.392 37.864 20.088 39.256C17.832 40.6 16.056 42.52 14.76 45.016C13.512 47.512 12.888 50.44 12.888 53.8C12.888 57.112 13.512 60.04 14.76 62.584C16.056 65.08 17.832 67.024 20.088 68.416C22.392 69.76 25.008 70.432 27.936 70.432C30.672 70.432 33.072 69.832 35.136 68.632C37.248 67.384 38.88 65.56 40.032 63.16H51.624C49.944 68.296 46.992 72.304 42.768 75.184C38.592 78.016 33.672 79.432 28.008 79.432C23.208 79.432 18.864 78.352 14.976 76.192C11.136 73.984 8.088 70.936 5.832 67.048C3.624 63.16 2.52 58.744 2.52 53.8ZM82.6976 38.536C85.7216 38.536 88.4096 39.208 90.7616 40.552C93.1136 41.848 94.9376 43.792 96.2336 46.384C97.5776 48.928 98.2496 52 98.2496 55.6V79H88.1696V56.968C88.1696 53.8 87.3776 51.376 85.7936 49.696C84.2096 47.968 82.0496 47.104 79.3136 47.104C76.5296 47.104 74.3216 47.968 72.6896 49.696C71.1056 51.376 70.3136 53.8 70.3136 56.968V79H60.2336V25.72H70.3136V44.08C71.6096 42.352 73.3376 41.008 75.4976 40.048C77.6576 39.04 80.0576 38.536 82.6976 38.536ZM112.947 34.36C111.171 34.36 109.683 33.808 108.483 32.704C107.331 31.552 106.755 30.136 106.755 28.456C106.755 26.776 107.331 25.384 108.483 24.28C109.683 23.128 111.171 22.552 112.947 22.552C114.723 22.552 116.187 23.128 117.339 24.28C118.539 25.384 119.139 26.776 119.139 28.456C119.139 30.136 118.539 31.552 117.339 32.704C116.187 33.808 114.723 34.36 112.947 34.36ZM117.915 39.112V79H107.835V39.112H117.915ZM137.954 25.72V79H127.874V25.72H137.954ZM157.993 25.72V79H147.913V25.72H157.993ZM185.664 79.648C181.824 79.648 178.368 78.808 175.296 77.128C172.224 75.4 169.8 72.976 168.024 69.856C166.296 66.736 165.432 63.136 165.432 59.056C165.432 54.976 166.32 51.376 168.096 48.256C169.92 45.136 172.392 42.736 175.512 41.056C178.632 39.328 182.112 38.464 185.952 38.464C189.792 38.464 193.272 39.328 196.392 41.056C199.512 42.736 201.96 45.136 203.736 48.256C205.56 51.376 206.472 54.976 206.472 59.056C206.472 63.136 205.536 66.736 203.664 69.856C201.84 72.976 199.344 75.4 196.176 77.128C193.056 78.808 189.552 79.648 185.664 79.648ZM185.664 70.864C187.488 70.864 189.192 70.432 190.776 69.568C192.408 68.656 193.704 67.312 194.664 65.536C195.624 63.76 196.104 61.6 196.104 59.056C196.104 55.264 195.096 52.36 193.08 50.344C191.112 48.28 188.688 47.248 185.808 47.248C182.928 47.248 180.504 48.28 178.536 50.344C176.616 52.36 175.656 55.264 175.656 59.056C175.656 62.848 176.592 65.776 178.464 67.84C180.384 69.856 182.784 70.864 185.664 70.864ZM251.522 39.112V79H241.37V73.96C240.074 75.688 238.37 77.056 236.258 78.064C234.194 79.024 231.938 79.504 229.49 79.504C226.37 79.504 223.61 78.856 221.21 77.56C218.81 76.216 216.914 74.272 215.522 71.728C214.178 69.136 213.506 66.064 213.506 62.512V39.112H223.586V61.072C223.586 64.24 224.378 66.688 225.962 68.416C227.546 70.096 229.706 70.936 232.442 70.936C235.226 70.936 237.41 70.096 238.994 68.416C240.578 66.688 241.37 64.24 241.37 61.072V39.112H251.522ZM273.204 47.392V66.688C273.204 68.032 273.516 69.016 274.14 69.64C274.812 70.216 275.916 70.504 277.452 70.504H282.132V79H275.796C267.3 79 263.052 74.872 263.052 66.616V47.392H258.3V39.112H263.052V29.248H273.204V39.112H282.132V47.392H273.204Z" fill="white"/>
<path d="M4.5 62C20.8333 50.6667 55.8 37.8185 83 65.0185C97.1664 75.5188 131.799 90.2193 157 65.0185C182.201 39.8177 226.5 56.4997 243 67" stroke="white" stroke-width="5"/>
</svg>
